<svg preserveAspectRatio="none" overflow="visible" style="display: block;" width="97.8222" height="97.8222" viewBox="0 0 97.8222 97.8222" fill="none" xmlns="http://www.w3.org/2000/svg">
<g id="Avatar">
<g id="Group 9">
<g id="Group 8" opacity="0.5">
<g id="Ellipse 19" filter="url(#filter0_f_0_225)">
<circle cx="48.9111" cy="48.9111" r="29.8901" fill="white"/>
</g>
<g id="Mask group" filter="url(#filter1_i_0_225)">
<g id="Union">
<path d="M41.6414 30.7091C50.5062 30.7093 58.5391 35.9307 62.1394 44.0314L70.6502 63.1808L61.3484 67.3146L52.8377 48.1652C50.8712 43.7407 46.4832 40.889 41.6414 40.8888V30.7091ZM44.9861 49.6095C46.9528 54.034 51.3405 56.8859 56.1824 56.8859V67.0656C47.3175 67.0656 39.2838 61.8442 35.6834 53.7433L27.1726 34.5939L36.4744 30.4601L44.9861 49.6095Z" fill="url(#paint0_linear_0_225)"/>
<path d="M41.6414 30.7091C50.5062 30.7093 58.5391 35.9307 62.1394 44.0314L70.6502 63.1808L61.3484 67.3146L52.8377 48.1652C50.8712 43.7407 46.4832 40.889 41.6414 40.8888V30.7091ZM44.9861 49.6095C46.9528 54.034 51.3405 56.8859 56.1824 56.8859V67.0656C47.3175 67.0656 39.2838 61.8442 35.6834 53.7433L27.1726 34.5939L36.4744 30.4601L44.9861 49.6095Z" fill="url(#paint1_linear_0_225)" fill-opacity="0.2"/>
</g>
</g>
<circle id="Ellipse 20" cx="48.9111" cy="48.9111" r="29.8901" fill="white" fill-opacity="0.1"/>
</g>
<g id="Mask group_2">
<path id="Union_2" d="M43.0063 34.1167C50.2089 34.1168 56.7363 38.359 59.6616 44.9409L66.5766 60.4995L59.018 63.8589L52.103 48.3003C50.5052 44.7053 46.9403 42.3883 43.0063 42.3882V34.1167ZM45.7241 49.4731C47.3219 53.0681 50.8876 55.3852 54.8217 55.3852V63.6567C47.619 63.6567 41.0918 59.4143 38.1664 52.8325L31.2514 37.2739L38.809 33.9145L45.7241 49.4731Z" fill="url(#paint2_linear_0_225)"/>
</g>
<g id="Ellipse 21" filter="url(#filter3_f_0_225)">
<circle cx="48.9111" cy="48.9111" r="29.8901" stroke="url(#paint3_linear_0_225)" stroke-width="8.15185"/>
</g>
</g>
<g id="Ellipse 23" filter="url(#filter4_f_0_225)">
<path d="M26.3693 51.0035C21.1463 45.7805 22.2994 36.1593 28.9447 29.514C35.5901 22.8686 45.2112 21.7156 50.4342 26.9385C55.6572 32.1615 48.9874 36.266 42.3421 42.9113C35.6967 49.5567 31.5922 56.2264 26.3693 51.0035Z" fill="white" fill-opacity="0.4"/>
</g>
</g>
<defs>
<filter id="filter0_f_0_225" x="0" y="-1.19209e-07" width="97.8222" height="97.8222" filterUnits="userSpaceOnUse" color-interpolation-filters="sRGB">
<feFlood flood-opacity="0" result="BackgroundImageFix"/>
<feBlend mode="normal" in="SourceGraphic" in2="BackgroundImageFix" result="shape"/>
<feGaussianBlur stdDeviation="9.51049" result="effect1_foregroundBlur_0_225"/>
</filter>
<filter id="filter1_i_0_225" x="27.1726" y="30.4601" width="43.4775" height="38.3087" filterUnits="userSpaceOnUse" color-interpolation-filters="sRGB">
<feFlood flood-opacity="0" result="BackgroundImageFix"/>
<feBlend mode="normal" in="SourceGraphic" in2="BackgroundImageFix" result="shape"/>
<feColorMatrix in="SourceAlpha" type="matrix" values="0 0 0 0 0 0 0 0 0 0 0 0 0 0 0 0 0 0 127 0" result="hardAlpha"/>
<feOffset dy="1.45424"/>
<feGaussianBlur stdDeviation="4.36271"/>
<feComposite in2="hardAlpha" operator="arithmetic" k2="-1" k3="1"/>
<feColorMatrix type="matrix" values="0 0 0 0 1 0 0 0 0 1 0 0 0 0 1 0 0 0 0.25 0"/>
<feBlend mode="normal" in2="shape" result="effect1_innerShadow_0_225"/>
</filter>
<filter id="filter3_f_0_225" x="4.07592" y="4.07592" width="89.6703" height="89.6703" filterUnits="userSpaceOnUse" color-interpolation-filters="sRGB">
<feFlood flood-opacity="0" result="BackgroundImageFix"/>
<feBlend mode="normal" in="SourceGraphic" in2="BackgroundImageFix" result="shape"/>
<feGaussianBlur stdDeviation="5.43457" result="effect1_foregroundBlur_0_225"/>
</filter>
<filter id="filter4_f_0_225" x="14.9451" y="15.5144" width="45.5145" height="45.5145" filterUnits="userSpaceOnUse" color-interpolation-filters="sRGB">
<feFlood flood-opacity="0" result="BackgroundImageFix"/>
<feBlend mode="normal" in="SourceGraphic" in2="BackgroundImageFix" result="shape"/>
<feGaussianBlur stdDeviation="4.07592" result="effect1_foregroundBlur_0_225"/>
</filter>
<linearGradient id="paint0_linear_0_225" x1="73.0279" y1="56.2742" x2="31.9286" y2="30.4592" gradientUnits="userSpaceOnUse">
<stop stop-color="#4CC8AB"/>
<stop offset="0.5" stop-color="#FFE27B"/>
<stop offset="1" stop-color="#410028"/>
</linearGradient>
<linearGradient id="paint1_linear_0_225" x1="48.9114" y1="30.4601" x2="48.9114" y2="67.3146" gradientUnits="userSpaceOnUse">
<stop stop-color="white"/>
<stop offset="1" stop-color="white" stop-opacity="0"/>
</linearGradient>
<linearGradient id="paint2_linear_0_225" x1="33.2894" y1="36.7967" x2="50.8096" y2="67.1431" gradientUnits="userSpaceOnUse">
<stop offset="0.05" stop-color="#FFE27B" stop-opacity="0"/>
<stop offset="0.35" stop-color="#00211A"/>
<stop offset="0.5" stop-color="#00211A"/>
<stop offset="0.65" stop-color="#05765E"/>
<stop offset="0.95" stop-color="#FFE27B" stop-opacity="0"/>
</linearGradient>
<linearGradient id="paint3_linear_0_225" x1="28.1918" y1="26.1538" x2="73.3666" y2="71.3287" gradientUnits="userSpaceOnUse">
<stop stop-color="white"/>
<stop offset="1" stop-color="white" stop-opacity="0"/>
</linearGradient>
</defs>
</svg>
